<?xml version="1.0" encoding="utf-8"?>
<svg height="48" viewBox="0 -960 960 960" width="48" xmlns="http://www.w3.org/2000/svg">
  <path d="M 479 -119 C 379 -119 294 -154 224 -224 C 154 -294 119 -379 119 -479 C 119 -579 154 -664 224 -734 C 294 -804 379 -839 479 -839 C 484.333 -839 490 -838.833 496 -838.5 C 502 -838.167 509.667 -837.667 519 -837 C 495 -815.667 476.333 -789.333 463 -758 C 449.667 -726.667 443 -693.667 443 -659 C 443 -599 464 -548 506 -506 C 548 -464 599 -443 659 -443 C 693.667 -443 726.667 -449.167 758 -461.5 C 789.333 -473.833 815.667 -491 837 -513 C 837.667 -505 838.167 -498.5 838.5 -493.5 C 838.833 -488.5 839 -483.667 839 -479 C 839 -379 804 -294 734 -224 C 664 -154 579 -119 479 -119 Z" style="fill: rgb(185, 182, 176); fill-rule: nonzero; stroke-miterlimit: 7.44; stroke-width: 33px; stroke-dashoffset: 19px; stroke-dasharray: 10; paint-order: fill;"/>
</svg>